<svg width="396" height="305" viewBox="0 0 396 305" fill="none" xmlns="http://www.w3.org/2000/svg">
<path d="M109.317 24.0804C102.264 29.6652 59.951 63.319 46.8438 77.2574C45.3896 78.8039 46.6483 80.8913 48.7488 80.5846C61.4429 78.7311 93.6179 74.4217 106.797 76.2692C122.824 78.516 153.022 94.1853 171.184 101.304C172.286 101.736 173.518 101.325 174.112 100.302C178.298 93.0859 189.619 71.8989 195.299 63.4911C196.179 62.1893 195.806 60.3454 194.427 59.5938C156.283 38.818 118.775 26.0648 111.56 23.6922C110.774 23.4335 109.966 23.5663 109.317 24.0804Z" fill="#3CB1A4" stroke="#372427" stroke-width="5" stroke-linecap="round"/>
<path d="M286.13 26.0609C293.107 31.7401 334.963 65.9602 347.882 80.0738C349.315 81.6396 348.028 83.71 345.932 83.375C333.264 81.3509 301.15 76.6089 287.947 78.2789C271.891 80.3099 241.485 95.5713 223.229 102.445C222.122 102.862 220.895 102.435 220.315 101.404C216.226 94.132 205.192 72.7945 199.625 64.3111C198.763 62.9975 199.16 61.1588 200.55 60.4259C238.97 40.1652 276.646 27.9179 283.892 25.6426C284.682 25.3945 285.488 25.5382 286.13 26.0609Z" fill="#3CB1A4" stroke="#372427" stroke-width="5" stroke-linecap="round"/>
<rect x="10.6482" y="96.8553" width="11.3287" height="60.3761" transform="rotate(0.385502 10.6482 96.8553)" fill="#62BEB3" stroke="#372427" stroke-width="5"/>
<path d="M16.4996 69.0398C24.4096 69.093 30.9908 75.1774 30.9391 82.8785C30.8873 90.5796 24.2247 96.5748 16.3147 96.5216C8.40479 96.4683 1.82347 90.384 1.87528 82.6829C1.92715 74.9819 8.58973 68.9867 16.4996 69.0398Z" fill="#87CD97" stroke="#3D2A2D" stroke-width="3.75"/>
<path d="M13.8326 230.202L14.3061 159.829C14.3216 157.52 11.4676 156.426 9.93581 158.153L3.81402 165.055C3.4122 165.508 3.18847 166.091 3.1844 166.697L2.79849 224.052C2.79403 224.715 3.05314 225.353 3.51881 225.825L9.55301 231.941C11.1173 233.526 13.8176 232.429 13.8326 230.202Z" fill="#7DD5BF" stroke="#372427" stroke-width="5" stroke-linecap="round"/>
<path d="M10.6643 230.678L10.7494 218.021L6.03516 213.213L5.93631 227.904L10.6643 230.678Z" fill="#46B2A8"/>
<path d="M39.7927 251.988L40.53 142.408C40.5412 140.753 38.9693 139.544 37.3722 139.979L22.2406 144.107C21.321 144.357 20.624 145.109 20.4436 146.046L19.1423 152.801C19.1133 152.951 19.0983 153.104 19.0972 153.257L18.5118 240.259C18.5085 240.753 18.6514 241.236 18.9224 241.649L24.2882 249.816C24.601 250.292 25.0668 250.647 25.6088 250.822L36.5239 254.35C38.1318 254.87 39.7814 253.678 39.7927 251.988Z" fill="#BFDB7C" stroke="#372427" stroke-width="5" stroke-linecap="round"/>
<path d="M36.7864 252.056L36.9348 230.002L21.8022 221.577L21.6776 240.099L26.6862 248.191L36.7864 252.056Z" fill="#91AE69"/>
<rect x="2.51676" y="-2.48312" width="11.3287" height="60.3761" transform="matrix(-0.999977 -0.00672823 -0.00672823 0.999977 386.97 98.073)" fill="#62BEB3" stroke="#372427" stroke-width="5"/>
<path d="M378.994 67.6815C371.084 67.6283 364.421 73.6236 364.37 81.3246C364.318 89.0257 370.899 95.1101 378.809 95.1633C386.719 95.2164 393.381 89.2212 393.433 81.5202C393.485 73.8192 386.904 67.7348 378.994 67.6815Z" fill="#87CD97" stroke="#3D2A2D" stroke-width="3.75"/>
<path d="M379.492 228.866L379.966 158.493C379.981 156.184 382.85 155.128 384.358 156.876L390.386 163.86C390.782 164.318 390.998 164.904 390.994 165.51L390.608 222.865C390.604 223.528 390.336 224.162 389.864 224.628L383.748 230.662C382.163 232.227 379.477 231.093 379.492 228.866Z" fill="#7DD5BF" stroke="#372427" stroke-width="5" stroke-linecap="round"/>
<path d="M382.653 229.384L382.739 216.727L387.517 211.982L387.418 226.674L382.653 229.384Z" fill="#46B2A8"/>
<path d="M353.241 250.3L353.978 140.72C353.989 139.064 355.577 137.877 357.168 138.334L372.243 142.664C373.159 142.927 373.846 143.689 374.013 144.627L375.224 151.399C375.251 151.55 375.264 151.703 375.263 151.856L374.677 238.858C374.674 239.352 374.525 239.833 374.248 240.242L368.773 248.337C368.454 248.808 367.983 249.157 367.439 249.325L356.477 252.706C354.863 253.203 353.229 251.989 353.241 250.3Z" fill="#BFDB7C" stroke="#372427" stroke-width="5" stroke-linecap="round"/>
<path d="M356.407 249.777L356.563 226.662L371.804 218.869L371.668 239.121L366.554 246.681L356.407 249.777Z" fill="#91AE69"/>
<path d="M110.77 27.0744C136.963 30.9711 176.931 49.9236 196.322 60.4124C197.073 60.8187 197.952 60.8121 198.704 60.4075C224.465 46.5475 264.06 34.731 285.837 29.2083C288.068 28.6424 288.426 25.6186 286.368 24.5874C211.455 -12.9469 141.839 5.10419 109.65 22.1477C107.451 23.312 108.309 26.7083 110.77 27.0744Z" fill="#BED879" stroke="#372427" stroke-width="5" stroke-linecap="round"/>
<path d="M198.033 105.96L212.026 98.0056C213.226 97.3233 213.646 95.7972 212.964 94.5968L199.187 70.3577C198.236 68.6845 195.831 68.6683 194.857 70.3286L180.756 94.3801C180.057 95.5712 180.457 97.1028 181.648 97.8012L195.533 105.943C196.303 106.395 197.256 106.401 198.033 105.96Z" fill="#3CB1A4" stroke="#372427" stroke-width="5" stroke-linecap="round"/>
<path d="M196.504 109.062C184.824 113.943 94.9448 133.692 48.3952 143.607C47.5205 143.793 46.8366 144.416 46.6233 145.284C43.1529 159.413 43.4682 208.014 44.8368 231.7C50.3072 271.924 82.2079 285.376 96.6385 292.963C114.927 302.58 217.086 302.476 265.879 301.222C345.868 288.311 348.543 243.237 348.565 240.072C348.585 236.988 349.472 179.777 348.488 148.311C348.446 146.973 347.386 145.922 346.052 145.809C324.032 143.936 240.384 120.9 198.719 108.86C197.971 108.643 197.223 108.762 196.504 109.062Z" fill="#FDF8E5" stroke="#372427" stroke-width="5" stroke-linecap="round"/>
<path d="M197.122 125.925C183.415 131.403 91.6909 149.899 48.1753 158.466L48.2647 145.176L197.848 112.007L271.76 132.124C271.76 132.124 317.241 145.087 345.694 149.076L345.617 160.467L197.122 125.925Z" fill="#C8D1D5" fill-opacity="0.8"/>
<ellipse cx="118.657" cy="195.015" rx="30.8524" ry="30.0613" transform="rotate(0.385502 118.657 195.015)" fill="#3D282F"/>
<circle cx="107.65" cy="184.656" r="10.2841" transform="rotate(0.385502 107.65 184.656)" fill="white"/>
<circle cx="129.258" cy="206.556" r="5.14206" transform="rotate(0.385502 129.258 206.556)" fill="white"/>
<ellipse cx="276.881" cy="194.497" rx="30.8524" ry="30.0613" transform="rotate(0.385502 276.881 194.497)" fill="#3D282F"/>
<circle cx="265.875" cy="184.139" r="10.2841" transform="rotate(0.385502 265.875 184.139)" fill="white"/>
<circle cx="287.483" cy="206.04" r="5.14206" transform="rotate(0.385502 287.483 206.04)" fill="white"/>
<path d="M179.913 237.831C199.487 255.05 215.353 238.069 215.353 238.069" stroke="#372427" stroke-width="5" stroke-linecap="round"/>
<ellipse cx="304.297" cy="235.028" rx="18.9861" ry="10.2841" transform="rotate(0.385502 304.297 235.028)" fill="#F5CBC2"/>
<ellipse cx="87.5434" cy="233.57" rx="18.9861" ry="10.2841" transform="rotate(0.385502 87.5434 233.57)" fill="#F5CBC2"/>
<path d="M46.4007 80.6931C39.3888 127.182 41.3611 130.137 44.3167 141.331C44.4291 141.756 44.6615 142.155 45.0919 142.246C54.126 144.161 148.11 122.235 194.611 110.033C197.047 109.394 197.078 105.983 194.664 105.267L173.097 98.8662L150.209 90.8012L123.382 80.3368C80.5518 69.3221 64.5714 74.318 48.2496 78.6128C47.2814 78.8675 46.55 79.7032 46.4007 80.6931Z" fill="#BED879" stroke="#372427" stroke-width="5" stroke-linecap="round"/>
<path d="M349.745 82.7419C356.321 130.542 353.445 130.996 350.256 142.447C350.197 142.659 350.131 142.839 349.928 142.924C343.339 145.668 242.617 120.7 197.566 108.036C196.376 107.702 196.36 106.034 197.537 105.657L244.352 90.6436L272.889 82.1775C316.563 71.5703 332.286 77.1246 348.833 81.6846C349.315 81.8176 349.676 82.246 349.745 82.7419Z" fill="#BED879" stroke="#372427" stroke-width="5" stroke-linecap="round"/>
<path d="M308.522 286.549C337.588 274.001 343.481 257.378 345.059 243.371C303.484 308.278 82.0621 314.492 49.5366 238.218C56.8626 278.139 105.709 296.653 127.944 298.076C141.877 298.969 191.267 301.264 214.36 301.206C260.108 303.043 296.197 292.2 308.522 286.549Z" fill="#C7D1D4" fill-opacity="0.7"/>
<path d="M357.136 141.558L357.055 153.582C362.125 152.604 367.792 156.819 372.197 160.646C372.658 154.943 373.884 149.202 371.033 145.449C368.694 142.37 362.989 140.595 357.136 141.558Z" fill="#E4EFB6"/>
<path d="M37.5248 142.22L37.4451 154.067C32.177 153.034 26.8511 157.113 22.2104 160.823C21.8079 155.198 21.1895 149.306 24.2112 145.648C26.6903 142.646 31.4404 141.192 37.5248 142.22Z" fill="#E4EFB6"/>
<path d="M113 24.0984C137.068 8.02231 204.68 -13.6231 282.6 25.8725C253.873 15.8848 179.739 1.04087 113 24.0984Z" fill="#E3F1B3"/>
<path d="M94.2174 55.3977C95.9925 53.8448 99.4043 52.214 98.8498 58.114C97.8553 60.9894 94.5033 65.526 89.051 60.669C87.1258 57.4648 84.9528 49.965 91.6624 45.5994C94.8219 44.3395 102.168 43.2523 106.279 48.9825C109.44 53.3903 110.634 57.6258 113.403 58.2119" stroke="#B5D57E" stroke-width="4" stroke-linecap="round"/>
<path d="M144.305 65.4463C142.5 63.8153 141.482 61.3026 143.037 56.9571C143.887 54.581 152.37 56.4714 153.212 62.2239C153.636 65.1266 149.998 69.7133 144.264 71.6547C139.962 73.1108 124.79 60.3368 122.917 55.1763" stroke="#B5D57E" stroke-width="4" stroke-linecap="round"/>
<path d="M166.619 64.9337C167.547 67.0994 166.68 69.5604 164.265 74.1302C162.945 76.6291 156.962 72.914 157.932 66.3177C158.421 62.9891 162.504 58.5422 167.453 57.4509C171.165 56.6324 179.228 73.7887 179.216 79.917" stroke="#B5D57E" stroke-width="4" stroke-linecap="round"/>
<path d="M141.992 42.0144L101.935 69.5917" stroke="#B5D57E" stroke-width="4" stroke-linecap="round"/>
<circle cx="117.923" cy="45.0172" r="2.53148" transform="rotate(0.385502 117.923 45.0172)" fill="#B5D57E"/>
<circle cx="117.769" cy="67.7994" r="2.53148" transform="rotate(0.385502 117.769 67.7994)" fill="#B5D57E"/>
<path d="M229.98 69.0691C231.181 67.0389 233.911 64.423 235.23 70.2006C235.184 73.2428 233.419 78.6001 226.721 75.6916C223.891 73.2501 219.481 66.8058 224.489 60.561C227.096 58.3764 233.735 55.0465 239.431 59.204C243.812 62.4021 246.271 66.0518 249.084 65.7426" stroke="#B5D57E" stroke-width="4" stroke-linecap="round"/>
<path d="M280.699 62.9503C278.474 61.9656 276.721 59.8973 276.839 55.2834C276.904 52.7605 285.552 51.9038 288.151 57.1045C289.462 59.7288 287.44 65.2232 282.6 68.8604C278.97 71.5885 260.564 64.1995 257.172 59.8833" stroke="#B5D57E" stroke-width="4" stroke-linecap="round"/>
<path d="M301.733 55.4863C303.292 57.2532 303.238 59.8619 302.373 64.9578C301.9 67.7443 295.055 66.0864 293.914 59.5176C293.338 56.203 295.825 50.7024 300.185 48.1181C303.455 46.1799 316.478 59.9546 318.383 65.7793" stroke="#B5D57E" stroke-width="4" stroke-linecap="round"/>
<path d="M271.389 40.0179L239.125 82.3112" stroke="#B5D57E" stroke-width="4" stroke-linecap="round"/>
<circle cx="249.251" cy="51.7955" r="2.53148" transform="rotate(-17.8366 249.251 51.7955)" fill="#B5D57E"/>
<circle cx="256.23" cy="73.483" r="2.53148" transform="rotate(-17.8366 256.23 73.483)" fill="#B5D57E"/>
</svg>
